<svg preserveAspectRatio="none" overflow="visible" style="display: block;" width="14.25" height="10" viewBox="0 0 14.25 10" fill="none" xmlns="http://www.w3.org/2000/svg">
<path id="Vector" d="M11.25 8.5V10H4.382V8.5H11.25ZM12.75 7V3C12.75 2.62885 12.6124 2.27089 12.3638 1.99531C12.1151 1.71973 11.7732 1.5461 11.404 1.508L11.25 1.5H4.383C4.30996 1.50005 4.23782 1.5161 4.17165 1.54703C4.10548 1.57795 4.04689 1.623 4 1.679L1.618 4.513C1.54216 4.6028 1.50038 4.71646 1.5 4.834V5.165C1.50038 5.28254 1.54216 5.3962 1.618 5.486L4 8.321C4.04689 8.377 4.10548 8.42205 4.17165 8.45297C4.23782 8.4839 4.30896 8.49995 4.382 8.5V10C4.0905 9.99999 3.80352 9.93626 3.53923 9.81327C3.27494 9.69028 3.04073 9.51101 2.853 9.288L0.468 6.45C0.165853 6.08997 0.000160111 5.63502 4.11299e-09 5.165V4.834C-3.01777e-05 4.36317 0.16605 3.90742 0.469 3.547L2.852 0.713C3.03985 0.489551 3.27434 0.309933 3.539 0.186758C3.80366 0.0635833 4.09208 -0.000161347 4.384 3.06692e-07H11.25C12.0456 3.06692e-07 12.8087 0.316071 13.3713 0.87868C13.9339 1.44129 14.25 2.20435 14.25 3V7C14.25 7.39413 14.1723 7.78441 14.0214 8.14851C13.8706 8.51262 13.6494 8.84343 13.3706 9.12203C13.0918 9.40063 12.7609 9.62157 12.3967 9.77221C12.0325 9.92286 11.6421 10.0003 11.248 10V8.5C11.4452 8.50026 11.6404 8.46166 11.8226 8.38639C12.0049 8.31113 12.1705 8.20068 12.31 8.06137C12.4495 7.92205 12.5601 7.75661 12.6356 7.57449C12.7111 7.39237 12.75 7.19715 12.75 7ZM4.75 5C4.75 4.73478 4.85536 4.48043 5.04289 4.29289C5.23043 4.10536 5.48478 4 5.75 4C6.01522 4 6.26957 4.10536 6.45711 4.29289C6.64464 4.48043 6.75 4.73478 6.75 5C6.75 5.26522 6.64464 5.51957 6.45711 5.70711C6.26957 5.89464 6.01522 6 5.75 6C5.48478 6 5.23043 5.89464 5.04289 5.70711C4.85536 5.51957 4.75 5.26522 4.75 5Z" fill="#707070"/>
</svg>
